# xmcd CD database file
#
# Track frame offsets:
#	150
#	22053
#	45159
#	67777
#	86412
#	108558
#	131344
#	152421
#	174869
#	195030
#	216753
#	240261
#
# Disc length: 3546 seconds
#
# Revision: 19
# Processed by: cddbd v1.5.2PL0 Copyright (c) Steve Scherf et al.
# Submitted via: CDex 1.70beta1
#
DISCID=7f0dd80c
DTITLE=I WiSH - I WiSH
DYEAR=2003
DGENRE=Jazz
TTITLE0=ai|V\?¨O
TTITLE1=?μURL?e・L-・
TTITLE2=?A?aao≪B
TTITLE3=AU|¨-・¨a
TTITLE4=￢P￢P￢U|L
TTITLE5=UTS|b3o?NaA?U
TTITLE6=December
TTITLE7=Flower II
TTITLE8=?￡\u￢O|P?C
TTITLE9=°{≪G
TTITLE10=|V\u?÷\?¨O≪e¶i
TTITLE11=I
EXTD=YEAR: 2003
EXTT0=
EXTT1=
EXTT2=
EXTT3=
EXTT4=
EXTT5=
EXTT6=
EXTT7=
EXTT8=
EXTT9=
EXTT10=
EXTT11=
PLAYORDER=
